<svg width="46" height="45" xmlns="http://www.w3.org/2000/svg" xmlns:xlink="http://www.w3.org/1999/xlink" xml:space="preserve" overflow="hidden"><defs><clipPath id="clip0"><rect x="919" y="190" width="46" height="45"/></clipPath></defs><g clip-path="url(#clip0)" transform="translate(-919 -190)"><path d="M43.5601 9.99457C42.7645 9.99457 42.1202 10.6389 42.1202 11.4345L42.1202 37.0553 2.87898 37.0553 2.87898 7.94552 43.5601 7.94552C44.3557 7.94552 45 7.30121 45 6.50564 45 5.71007 44.3557 5.06575 43.5601 5.06575L1.43989 5.06575C0.644315 5.06575 0 5.70998 0 6.50564L0 38.4944C0 39.2899 0.644315 39.9342 1.43989 39.9342L43.5601 39.9342C44.355 39.9342 44.9992 39.2899 45 38.4944L45 11.4345C45 10.6389 44.3557 9.99457 43.5601 9.99457Z" fill="#FFFFFF" transform="matrix(1.02222 0 0 1 919 190)"/><path d="M39.7163 10.4352C39.2108 9.82064 38.3045 9.73169 37.689 10.2364L22.5 22.7156 7.30938 10.2364C6.69477 9.7309 5.78758 9.82064 5.28213 10.4352 4.77827 11.0499 4.86642 11.957 5.48103 12.4617L21.5857 25.6922C21.8517 25.9098 22.1754 26.019 22.4999 26.019 22.8244 26.019 23.1481 25.9106 23.414 25.6922L39.5172 12.4625C40.132 11.957 40.2202 11.0499 39.7163 10.4352Z" fill="#FFFFFF" transform="matrix(1.02222 0 0 1 919 190)"/><path d="M14.2959 23.8787 5.38901 32.5734C4.82036 33.1295 4.80947 34.0406 5.36484 34.6099 5.64722 34.8986 6.02163 35.0436 6.39525 35.0436 6.75797 35.0436 7.12148 34.9079 7.40149 34.6341L16.3083 25.9394C16.877 25.3832 16.8879 24.4722 16.3325 23.9028 15.7756 23.3342 14.8645 23.3225 14.2959 23.8787Z" fill="#FFFFFF" transform="matrix(1.02222 0 0 1 919 190)"/><path d="M30.5894 23.8787C30.02 23.3233 29.1105 23.3342 28.5529 23.9028 27.9975 24.4723 28.0084 25.3833 28.577 25.9394L37.4839 34.6349C37.7639 34.9079 38.1274 35.0436 38.4901 35.0436 38.8638 35.0436 39.2382 34.8985 39.5206 34.6099 40.0759 34.0405 40.065 33.1295 39.4964 32.5734L30.5894 23.8787Z" fill="#FFFFFF" transform="matrix(1.02222 0 0 1 919 190)"/></g></svg>