<svg width="46" height="45" xmlns="http://www.w3.org/2000/svg" xmlns:xlink="http://www.w3.org/1999/xlink" xml:space="preserve" overflow="hidden"><defs><clipPath id="clip0"><rect x="504" y="273" width="46" height="45"/></clipPath></defs><g clip-path="url(#clip0)" transform="translate(-504 -273)"><path d="M13.5809 45.1128C11.0866 45.1128 8.65387 44.6257 6.37766 43.5528 5.65665 43.2133 5.34774 42.354 5.68726 41.6323 6.02644 40.9106 6.88677 40.6017 7.60847 40.9408 17.1289 45.4262 30.082 37.7778 37.104 27.7917 39.5311 24.339 46.7784 12.3993 38.1026 3.72202 37.0437 2.66321 35.3196 2.66321 34.2616 3.72202L31.1642 6.81935C30.6499 7.33293 30.3668 8.01473 30.3668 8.74125 30.3668 9.46779 30.6499 10.1512 31.1642 10.6655 31.2543 10.7564 31.3427 10.8447 31.4277 10.9325L36.559 5.80044C37.1229 5.2356 38.0362 5.23663 38.6007 5.80044 39.1644 6.36424 39.1644 7.27823 38.6007 7.84205L32.4047 14.0391C32.1198 14.3246 31.7273 14.4763 31.3263 14.4616 30.9234 14.445 30.5457 14.262 30.2846 13.9555 29.9602 13.5737 29.5794 13.1657 29.1219 12.7075 28.0631 11.6487 27.4797 10.2404 27.4797 8.74297 27.4797 7.24452 28.0631 5.83725 29.1233 4.77911L32.2199 1.68248C34.4056-0.502233 37.9595-0.502233 40.1452 1.68248 46.9711 8.50905 46.7107 19.1509 39.4654 29.4539 33.3678 38.1235 23.0287 45.1121 13.5809 45.1128Z" fill="#FFFFFF" transform="matrix(1.02023 0 0 1 504 273)"/><path d="M4.01683 41.8287C3.69863 41.8287 3.38043 41.7238 3.11522 41.5125 2.60369 41.1036 2.10731 40.6571 1.63811 40.1889-0.54592 38.0048-0.54592 34.4483 1.63742 32.2605L4.73784 29.1632C5.79596 28.1044 7.20325 27.521 8.70066 27.521 10.1984 27.521 11.6057 28.1044 12.6631 29.1639 15.0856 31.588 17.304 33.0011 20.2606 32.0297 24.1409 30.759 30.717 24.1842 31.9902 20.3033 32.4232 18.9833 32.3974 17.7457 31.912 16.5197 31.6186 15.7784 31.9822 14.939 32.7235 14.646 33.4656 14.3535 34.3038 14.7171 34.5973 15.4577 35.3306 17.3115 35.3761 19.2448 34.7331 21.2042 33.1669 25.9812 25.9362 33.2096 21.1605 34.7744 16.5128 36.3024 13.0845 33.6712 10.6211 31.2054 9.59469 30.179 7.80386 30.1797 6.77876 31.2065L3.67902 34.3022C2.62021 35.3633 2.62021 37.0892 3.67971 38.1493 3.76812 38.2378 3.85893 38.3255 3.94975 38.4121L9.19497 33.1659C9.75875 32.6021 10.6738 32.6021 11.2366 33.1659 11.7997 33.7297 11.8004 34.6447 11.2366 35.2075L5.03745 41.407C4.75744 41.6856 4.38765 41.8287 4.01683 41.8287Z" fill="#FFFFFF" transform="matrix(1.02023 0 0 1 504 273)"/></g></svg>