<svg width="45" height="45" xmlns="http://www.w3.org/2000/svg" xmlns:xlink="http://www.w3.org/1999/xlink" xml:space="preserve" overflow="hidden"><defs><clipPath id="clip0"><rect x="670" y="273" width="45" height="45"/></clipPath></defs><g clip-path="url(#clip0)" transform="translate(-670 -273)"><path d="M708.281 296.428C707.47 296.428 706.813 297.085 706.813 297.896L706.813 315.064 702.532 315.064 702.532 300.19C702.532 299.379 701.875 298.722 701.064 298.722L690.393 298.722C689.582 298.722 688.925 299.379 688.925 300.19L688.925 315.065 678.247 315.065 678.247 297.897C678.247 297.086 677.59 296.429 676.779 296.429 675.968 296.429 675.311 297.086 675.311 297.897L675.311 316.532C675.311 317.343 675.968 318 676.779 318L690.393 318C690.393 318 690.393 318 690.393 318 690.393 318 690.393 318 690.393 318L696.362 318C697.174 318 697.831 317.344 697.831 316.533 697.831 315.722 697.174 315.065 696.363 315.065L691.861 315.065 691.861 301.658 699.597 301.658 699.597 316.532C699.597 317.343 700.254 318 701.065 318L708.281 318C709.091 318 709.748 317.343 709.749 316.532L709.749 297.896C709.749 297.085 709.092 296.428 708.281 296.428Z" fill="#FFFFFF"/><path d="M714.651 290.502 712.102 279.068C712.09 279.007 712.074 278.947 712.054 278.888 712.054 278.888 712.054 278.888 712.054 278.888 712.039 278.842 712.021 278.797 712.002 278.753 712 278.749 711.998 278.745 711.996 278.741 711.978 278.702 711.959 278.664 711.937 278.626 711.934 278.619 711.929 278.613 711.925 278.606 711.905 278.572 711.884 278.539 711.861 278.506 711.856 278.499 711.85 278.491 711.844 278.484 711.822 278.453 711.799 278.423 711.774 278.394 711.768 278.387 711.761 278.38 711.755 278.373 711.729 278.345 711.703 278.317 711.676 278.291 711.67 278.285 711.663 278.28 711.657 278.274 711.628 278.248 711.599 278.222 711.568 278.198 711.562 278.193 711.556 278.189 711.55 278.185 711.519 278.161 711.487 278.138 711.453 278.116 711.447 278.112 711.44 278.109 711.434 278.105 711.401 278.084 711.367 278.064 711.332 278.047 711.324 278.042 711.315 278.039 711.307 278.034 711.274 278.018 711.241 278.003 711.206 277.989 711.194 277.984 711.181 277.98 711.168 277.975 711.138 277.964 711.107 277.953 711.076 277.944 711.057 277.938 711.037 277.934 711.017 277.929 710.992 277.923 710.967 277.916 710.941 277.911 710.914 277.906 710.886 277.902 710.859 277.898 710.839 277.896 710.82 277.893 710.8 277.891 710.768 277.888 710.736 277.887 710.703 277.886 710.689 277.886 710.676 277.884 710.662 277.884L710.637 277.884C710.637 277.884 710.637 277.884 710.637 277.884L674.368 277.884C674.206 277.88 674.049 277.903 673.899 277.949 673.897 277.95 673.894 277.951 673.891 277.952 673.849 277.966 673.807 277.981 673.766 277.998 673.761 278 673.757 278.002 673.752 278.004 673.714 278.021 673.676 278.039 673.639 278.059 673.633 278.062 673.628 278.065 673.623 278.068 673.587 278.088 673.552 278.109 673.518 278.132 673.512 278.135 673.507 278.139 673.502 278.143 673.469 278.166 673.436 278.19 673.404 278.216 673.4 278.22 673.395 278.224 673.39 278.228 673.359 278.254 673.329 278.281 673.3 278.31 673.295 278.315 673.291 278.32 673.286 278.325 673.258 278.353 673.231 278.382 673.206 278.413 673.2 278.42 673.195 278.427 673.189 278.434 673.166 278.463 673.143 278.493 673.122 278.524 673.115 278.534 673.109 278.545 673.102 278.556 673.083 278.584 673.066 278.612 673.05 278.642 673.04 278.658 673.033 278.675 673.024 278.691 673.012 278.716 672.999 278.741 672.988 278.767 672.978 278.79 672.969 278.814 672.961 278.838 672.953 278.858 672.945 278.879 672.938 278.9 672.929 278.928 672.921 278.957 672.914 278.986 672.91 279.001 672.905 279.016 672.901 279.032L670.348 290.501C670.054 291.824 670.336 293.144 671.121 294.124 671.907 295.103 673.134 295.665 674.488 295.665L676.16 295.665C677.511 295.665 678.784 295.13 679.757 294.259 680.593 295.153 681.794 295.665 683.075 295.665L684.745 295.665C686.086 295.665 687.326 295.12 688.246 294.24 689.147 295.159 690.358 295.665 691.661 295.665L693.335 295.665C694.638 295.665 695.848 295.159 696.75 294.24 697.67 295.12 698.91 295.665 700.251 295.665L701.924 295.665C703.205 295.665 704.405 295.153 705.241 294.259 706.214 295.13 707.488 295.665 708.84 295.665L710.513 295.665C711.867 295.665 713.094 295.103 713.879 294.124 714.665 293.144 714.946 291.824 714.651 290.502ZM676.16 292.729 674.488 292.729C674.022 292.729 673.64 292.571 673.411 292.286 673.182 292.001 673.112 291.594 673.213 291.14L675.51 280.82 679.924 280.82 678.62 290.575C678.619 290.579 678.619 290.583 678.619 290.587 678.457 291.729 677.312 292.729 676.16 292.729ZM684.746 292.73 683.076 292.73C682.586 292.73 682.158 292.549 681.873 292.223 681.587 291.897 681.466 291.45 681.531 290.963L682.887 280.82 687.33 280.82 686.89 290.676C686.89 290.682 686.89 290.688 686.89 290.693 686.832 291.798 685.854 292.73 684.746 292.73ZM694.673 292.167C694.326 292.529 693.85 292.729 693.336 292.729L691.662 292.729C691.146 292.729 690.672 292.529 690.325 292.167 689.981 291.807 689.804 291.328 689.824 290.818 689.825 290.815 689.825 290.811 689.825 290.808L690.271 280.82 694.73 280.82 695.173 290.807C695.173 290.814 695.174 290.821 695.174 290.828 695.191 291.336 695.014 291.81 694.673 292.167ZM703.128 292.222C702.842 292.548 702.415 292.729 701.925 292.729L700.252 292.729C699.138 292.729 698.157 291.789 698.108 290.676L697.67 280.82 702.113 280.82 703.468 290.964C703.469 290.972 703.471 290.98 703.472 290.987 703.53 291.464 703.409 291.902 703.128 292.222ZM711.589 292.287C711.36 292.572 710.978 292.729 710.513 292.729L708.84 292.729C707.683 292.729 706.532 291.721 706.379 290.575L705.076 280.82 709.485 280.82 711.786 291.14C711.887 291.595 711.818 292.001 711.589 292.287Z" fill="#FFFFFF"/><path d="M676.716 275.935 708.281 275.935C709.091 275.935 709.749 275.279 709.749 274.468 709.749 273.657 709.092 273 708.281 273L676.716 273C675.904 273 675.248 273.656 675.248 274.467 675.248 275.278 675.904 275.935 676.716 275.935Z" fill="#FFFFFF"/></g></svg>