<svg width="46" height="45" xmlns="http://www.w3.org/2000/svg" xmlns:xlink="http://www.w3.org/1999/xlink" xml:space="preserve" overflow="hidden"><defs><clipPath id="clip0"><rect x="753" y="190" width="46" height="45"/></clipPath></defs><g clip-path="url(#clip0)" transform="translate(-753 -190)"><path d="M43.5601 5.61638C42.7645 5.61638 42.1202 6.26069 42.1202 7.05626L42.1202 29.3285 2.87898 29.3285 2.87898 4.37547 43.5601 4.37547C44.3557 4.37547 45 3.73116 45 2.93558 45 2.14001 44.3557 1.4957 43.5601 1.4957L1.43989 1.4957C0.644315 1.4957 0 2.13992 0 2.93558L0 36.2472C0 37.042 0.644315 37.6863 1.43989 37.6863L43.5601 37.6863C44.355 37.6863 44.9992 37.042 45 36.2472L45 7.05626C45 6.26069 44.3557 5.61638 43.5601 5.61638ZM2.87898 34.808 2.87898 32.2083 42.1202 32.2083 42.1202 34.808 2.87898 34.808Z" fill="#FFFFFF" transform="matrix(1.02222 0 0 1 753 190)"/><path d="M31.3522 40.6245 23.9383 40.6245 23.9383 39.8063C23.9383 39.0107 23.294 38.3664 22.4985 38.3664 21.7029 38.3664 21.0586 39.0107 21.0586 39.8063L21.0586 40.6245 13.6439 40.6245C12.8483 40.6245 12.204 41.2688 12.204 42.0644 12.204 42.86 12.8483 43.5043 13.6439 43.5043L31.3523 43.5043C32.1479 43.5043 32.7922 42.86 32.7922 42.0644 32.7922 41.2688 32.1479 40.6245 31.3522 40.6245Z" fill="#FFFFFF" transform="matrix(1.02222 0 0 1 753 190)"/><path d="M12.1306 8.93612C11.7453 8.2396 10.8678 7.99 10.1728 8.37372L6.12306 10.617C5.66515 10.8705 5.38127 11.3533 5.38127 11.8767 5.38127 12.4001 5.66515 12.883 6.12306 13.1364L10.1728 15.3797C10.3943 15.5013 10.633 15.5599 10.8693 15.5599 11.3756 15.5599 11.8678 15.2923 12.1306 14.8189 12.5159 14.1232 12.264 13.2464 11.5682 12.8611L9.79295 11.8775 11.5682 10.8939C12.264 10.5086 12.5159 9.63185 12.1306 8.93612Z" fill="#FFFFFF" transform="matrix(1.02222 0 0 1 753 190)"/><path d="M20.3448 14.8173C20.6085 15.2916 21.0999 15.5599 21.6061 15.5599 21.8425 15.5599 22.082 15.5013 22.3026 15.3797L26.3516 13.1348C26.8095 12.8814 27.0934 12.3985 27.0934 11.8751 27.0934 11.3518 26.8095 10.8689 26.3516 10.6154L22.3026 8.37214C21.6076 7.98912 20.7309 8.23872 20.3448 8.93454 19.9595 9.63027 20.2114 10.5071 20.9072 10.8924L22.6825 11.8759 20.9072 12.8595C20.2115 13.2449 19.9595 14.1216 20.3448 14.8173Z" fill="#FFFFFF" transform="matrix(1.02222 0 0 1 753 190)"/><path d="M14.9854 17.0232C15.5861 17.0232 16.1469 16.6442 16.3497 16.0427L18.8519 8.62798C19.1062 7.87451 18.7022 7.05785 17.9479 6.80358 17.1937 6.54695 16.377 6.95414 16.1235 7.70761L13.6212 15.1224C13.367 15.8758 13.771 16.6925 14.5253 16.9468 14.6773 16.999 14.8333 17.0232 14.9854 17.0232Z" fill="#FFFFFF" transform="matrix(1.02222 0 0 1 753 190)"/><path d="M30.6261 11.3003 38.1796 11.3003C38.9752 11.3003 39.6195 10.656 39.6195 9.86045 39.6195 9.06488 38.9752 8.42056 38.1796 8.42056L30.6261 8.42056C29.8305 8.42056 29.1862 9.06488 29.1862 9.86045 29.1862 10.656 29.8304 11.3003 30.6261 11.3003Z" fill="#FFFFFF" transform="matrix(1.02222 0 0 1 753 190)"/><path d="M38.1796 16.3127C38.9752 16.3127 39.6195 15.6683 39.6195 14.8728 39.6195 14.0772 38.9752 13.4329 38.1796 13.4329L30.6261 13.4329C29.8305 13.4329 29.1862 14.0772 29.1862 14.8728 29.1862 15.6683 29.8305 16.3127 30.6261 16.3127L38.1796 16.3127Z" fill="#FFFFFF" transform="matrix(1.02222 0 0 1 753 190)"/><path d="M32.53 21.3249 38.1796 21.3249C38.9752 21.3249 39.6195 20.6806 39.6195 19.885 39.6195 19.0894 38.9752 18.4451 38.1796 18.4451L32.53 18.4451C31.7345 18.4451 31.0901 19.0894 31.0901 19.885 31.0901 20.6806 31.7345 21.3249 32.53 21.3249Z" fill="#FFFFFF" transform="matrix(1.02222 0 0 1 753 190)"/><path d="M29.9296 19.885C29.9296 19.0894 29.2853 18.4451 28.4897 18.4451L23.1038 18.4451C22.3082 18.4451 21.6639 19.0894 21.6639 19.885 21.6639 20.6806 22.3082 21.3249 23.1038 21.3249L28.4897 21.3249C29.2853 21.3249 29.9296 20.6807 29.9296 19.885Z" fill="#FFFFFF" transform="matrix(1.02222 0 0 1 753 190)"/><path d="M6.82037 21.3249 18.6616 21.3249C19.4564 21.3249 20.1015 20.6806 20.1015 19.885 20.1015 19.0894 19.4571 18.4451 18.6616 18.4451L6.82037 18.4451C6.0248 18.4451 5.38048 19.0894 5.38048 19.885 5.38048 20.6806 6.02471 21.3249 6.82037 21.3249Z" fill="#FFFFFF" transform="matrix(1.02222 0 0 1 753 190)"/><path d="M6.82037 26.3372 27.414 26.3372C28.2089 26.3372 28.8531 25.6929 28.8531 24.8973 28.8531 24.1017 28.2088 23.4574 27.4132 23.4574L6.82037 23.4574C6.0248 23.4574 5.38048 24.1017 5.38048 24.8973 5.38048 25.6929 6.02471 26.3372 6.82037 26.3372Z" fill="#FFFFFF" transform="matrix(1.02222 0 0 1 753 190)"/></g></svg>